<?xml version="1.0" encoding="UTF-8"?>
<svg width="16px" height="16px" viewBox="0 0 16 16" version="1.1" xmlns="http://www.w3.org/2000/svg" xmlns:xlink="http://www.w3.org/1999/xlink">
    <title>edit-button</title>
    <g id="Page-1" stroke="none" stroke-width="1" fill="none" fill-rule="evenodd">
        <g id="edit-button" fill="#6A6A6A" fill-rule="nonzero">
            <path d="M12.721558,5.49411426 C12.5015175,5.49411426 12.323116,5.67251621 12.323116,5.89255725 L12.323116,13.1685635 C12.323116,13.9374508 11.6974217,14.563114 10.9285364,14.563114 L2.19149627,14.563114 C1.42261089,14.563114 0.796916633,13.9374182 0.796916633,13.1685635 L0.796916633,4.43143645 C0.796916633,3.66254917 1.42261089,3.03688598 2.19149627,3.03688598 L10.9285364,3.03688598 C11.1485769,3.03688598 11.3269784,2.85848403 11.3269784,2.63844299 C11.3269784,2.41840195 11.1485769,2.24 10.9285364,2.24 L2.19149627,2.24 C0.98308466,2.24 0,3.22305447 0,4.43143645 L0,13.1685635 C0,14.3769129 0.98308466,15.36 2.19149627,15.36 L10.9285364,15.36 C12.1369153,15.36 13.12,14.3769129 13.12,13.1685635 L13.12,5.89258988 C13.12,5.67254884 12.9415985,5.49411426 12.721558,5.49411426 Z" id="Path"></path>
            <path d="M15.6436141,0.355695867 C15.1692922,-0.11866196 14.3975846,-0.118468608 13.9236494,0.355695867 L7.18431481,7.09573408 C7.17529238,7.10475719 7.07366118,7.21042427 7.04733502,7.26962232 L6.11406155,9.3664966 C6.04777893,9.5153457 6.08000648,9.68962065 6.19529562,9.80476198 C6.27060067,9.88004051 6.37126518,9.92 6.47366973,9.92 C6.52764319,9.92 6.58200331,9.90885001 6.6334956,9.88593776 L8.73024334,8.95259362 C8.78921135,8.92632992 8.89503154,8.8246588 8.90411841,8.81563568 L15.6436141,2.07582305 C15.873396,1.84602375 16,1.54055922 16,1.21566278 C16,0.890798565 15.873396,0.585269587 15.6436141,0.355695867 Z M15.0872525,1.51922601 L8.34772463,8.25926423 C8.34659683,8.26042434 8.34595237,8.26177781 8.34485679,8.26271234 L7.24963074,8.75031481 L7.73719629,7.65503805 C7.73816297,7.65387794 7.73948412,7.65326566 7.74064414,7.65213777 L14.4800109,0.912131777 C14.6423502,0.749748007 14.9253,0.749941359 15.0872848,0.912292904 C15.1684222,0.993178647 15.2131154,1.1009726 15.2131154,1.21566278 C15.2131154,1.33035296 15.1683577,1.43811469 15.0872525,1.51922601 Z" id="Shape"></path>
        </g>
    </g>
</svg>