<?xml version="1.0" encoding="UTF-8"?>
<svg width="23px" height="19px" viewBox="0 0 23 19" version="1.1" xmlns="http://www.w3.org/2000/svg" xmlns:xlink="http://www.w3.org/1999/xlink">
    <title>icons8-reddit</title>
    <g id="Page-1" stroke="none" stroke-width="1" fill="none" fill-rule="evenodd">
        <g id="icons8-reddit" fill="#222222" fill-rule="nonzero">
            <path d="M13.0145582,0 C11.3153392,0 10.0145582,1.414063 10.0145582,3 L10.0145582,5.03125 C7.89737121,5.175781 5.99112121,5.785156 4.45205821,6.71875 C3.89346421,6.28125 3.23330821,6.03125 2.57705821,6.03125 C1.85049621,6.03125 1.14346421,6.308594 0.639558208,6.875 C-0.317472792,8.070313 -0.231535792,10.023438 1.10830821,11.03125 C1.04580821,11.347656 1.01455821,11.667969 1.01455821,12 C1.01455821,14.054688 2.25674621,15.84375 4.07705821,17.0625 C5.89737121,18.28125 8.33487121,19 11.0145582,19 C13.6942462,19 16.1317462,18.28125 17.9520582,17.0625 C19.7723712,15.84375 21.0145582,14.054688 21.0145582,12 C21.0145582,11.667969 20.9520582,11.347656 20.8895582,11.03125 C22.2528392,9.945313 22.3934642,8.003906 21.3895582,6.875 C20.8856522,6.308594 20.1786212,6.03125 19.4520582,6.03125 C18.7958082,6.03125 18.1356522,6.28125 17.5770582,6.71875 C16.0379962,5.785156 14.1317462,5.175781 12.0145582,5.03125 L12.0145582,3 C12.0145582,2.386719 12.3153392,2 13.0145582,2 C13.3348712,2 13.7879962,2.171875 14.5458082,2.4375 C15.2176832,2.671875 16.1083082,2.914063 17.2645582,2.96875 C17.6044022,3.585938 18.2645582,4 19.0145582,4 C20.1161212,4 21.0145582,3.101563 21.0145582,2 C21.0145582,0.898438 20.1161212,0 19.0145582,0 C18.2879962,0 17.6473712,0.382813 17.2958082,0.96875 C16.4090892,0.925781 15.7840892,0.765625 15.2020582,0.5625 C14.5340892,0.328125 13.8934642,0 13.0145582,0 Z M19.0145582,1 C19.6161212,1 20.0145582,1.398438 20.0145582,2 C20.0145582,2.601563 19.6161212,3 19.0145582,3 C18.4129962,3 18.0145582,2.601563 18.0145582,2 C18.0145582,1.398438 18.4129962,1 19.0145582,1 Z M11.0145582,7 C13.3348712,7 15.3973712,7.636719 16.8270582,8.59375 C18.2567462,9.550781 19.0145582,10.753906 19.0145582,12 C19.0145582,13.246094 18.2567462,14.449219 16.8270582,15.40625 C15.3973712,16.363281 13.3348712,17 11.0145582,17 C8.69424621,17 6.63174621,16.363281 5.20205821,15.40625 C3.77237121,14.449219 3.01455821,13.246094 3.01455821,12 C3.01455821,10.753906 3.77237121,9.550781 5.20205821,8.59375 C6.63174621,7.636719 8.69424621,7 11.0145582,7 Z M2.60830821,7.03125 C2.94033921,7.03125 3.29190221,7.101563 3.60830821,7.28125 C2.64346421,8.023438 1.89346421,8.9375 1.45205821,9.96875 C0.870027208,9.28125 0.881746208,8.191406 1.38955821,7.53125 C1.68643321,7.195313 2.13565221,7.03125 2.60830821,7.03125 Z M19.4208082,7.03125 C19.8934642,7.03125 20.3426832,7.195313 20.6395582,7.53125 C21.1317462,8.085938 21.1708082,9.175781 20.5770582,9.9375 C20.1356522,8.914063 19.3778392,8.019531 18.4208082,7.28125 C18.7372142,7.101563 19.0887772,7.03125 19.4208082,7.03125 Z M8.01455821,9 C7.18643321,9 6.51455821,9.671875 6.51455821,10.5 C6.51455821,11.328125 7.18643321,12 8.01455821,12 C8.84268321,12 9.51455821,11.328125 9.51455821,10.5 C9.51455821,9.671875 8.84268321,9 8.01455821,9 Z M14.0145582,9 C13.1864332,9 12.5145582,9.671875 12.5145582,10.5 C12.5145582,11.328125 13.1864332,12 14.0145582,12 C14.8426832,12 15.5145582,11.328125 15.5145582,10.5 C15.5145582,9.671875 14.8426832,9 14.0145582,9 Z M15.1083082,13.40625 C14.2098712,14.207031 12.7137772,14.6875 11.0145582,14.6875 C9.31533921,14.6875 7.81924621,14.199219 6.92080821,13.5 C7.42080821,14.800781 9.01455821,16 11.0145582,16 C13.0145582,16 14.6083082,14.804688 15.1083082,13.40625 Z" id="Shape"></path>
        </g>
    </g>
</svg>